<svg width="18" height="18" viewBox="0 0 18 18" fill="none" xmlns="http://www.w3.org/2000/svg">
<path fill-rule="evenodd" clip-rule="evenodd" d="M7.91403 1.85039C4.56518 1.85039 1.85039 4.56518 1.85039 7.91403C1.85039 11.2629 4.56518 13.9777 7.91403 13.9777C9.59191 13.9777 11.1093 13.2973 12.208 12.1953C13.3025 11.0976 13.9777 9.58548 13.9777 7.91403C13.9777 4.56518 11.2629 1.85039 7.91403 1.85039ZM0.150391 7.91403C0.150391 3.62629 3.62629 0.150391 7.91403 0.150391C12.2018 0.150391 15.6777 3.62629 15.6777 7.91403C15.6777 9.74882 15.0404 11.436 13.9763 12.7644L15.1616 13.9594L15.164 13.9618L17.6012 16.399L16.3991 17.6011L13.9571 15.159L12.7753 13.9676C11.4452 15.0369 9.75386 15.6777 7.91403 15.6777C3.62629 15.6777 0.150391 12.2018 0.150391 7.91403Z" fill="#282D3C"/>
</svg>
